<svg width="42" height="41" viewBox="0 0 42 41" fill="none" xmlns="http://www.w3.org/2000/svg">
<path d="M21.3722 40.9976C17.3328 40.9974 13.3842 39.7949 10.0257 37.5423C6.66717 35.2897 4.04958 32.0882 2.5039 28.3424C0.958216 24.5967 0.553871 20.4751 1.34198 16.4988C2.1301 12.5224 4.07527 8.86993 6.93155 6.00314C9.78783 3.13634 13.4269 1.184 17.3887 0.392989C21.3505 -0.398025 25.4569 0.00780922 29.1889 1.55918C32.9208 3.11056 36.1107 5.73778 38.355 9.10867C40.5994 12.4796 41.7974 16.4427 41.7977 20.497C41.7915 25.9322 39.6376 31.143 35.8084 34.9863C31.9792 38.8296 26.7874 40.9915 21.3722 40.9976ZM21.3722 1.55312C17.6389 1.55312 13.9895 2.66425 10.8854 4.74598C7.78132 6.8277 5.36199 9.78653 3.93333 13.2483C2.50468 16.7101 2.13085 20.5194 2.85917 24.1944C3.5875 27.8694 5.38523 31.2451 8.02504 33.8946C10.6649 36.5442 14.0282 38.3485 17.6897 39.0795C21.3513 39.8105 25.1465 39.4354 28.5956 38.0014C32.0447 36.5675 34.9927 34.1393 37.0668 31.0237C39.1409 27.9082 40.2479 24.2453 40.2479 20.4983C40.2418 15.4758 38.251 10.6607 34.7124 7.10933C31.1738 3.55797 26.3763 1.5603 21.3722 1.5545V1.55312Z" fill="white"/>
<path d="M18.3777 32.4199H23.1567V20.3982H26.4939L26.8503 16.3718H23.1636V14.079C23.1636 13.1293 23.3534 12.7552 24.2668 12.7552H26.8612V8.57666H23.5432C19.9835 8.57666 18.3777 10.1513 18.3777 13.1622V16.3704H15.8899V20.4462H18.3777V32.4199Z" fill="white"/>
</svg>
