<svg width="81" height="81" viewBox="0 0 81 81" fill="none" xmlns="http://www.w3.org/2000/svg">
<g clip-path="url(#clip0_2_4889)">
<path d="M40.5106 0C18.1599 0 0 18.1599 0 40.5106C0 62.8401 18.1599 81.0212 40.5106 81.0212C62.8613 81.0212 81.0212 62.8613 81.0212 40.5106C81 18.1599 62.8401 0 40.5106 0ZM40.5106 78.4602C19.578 78.4602 2.53985 61.4432 2.53985 40.5106C2.53985 19.578 19.578 2.53985 40.5106 2.53985C61.4432 2.53985 78.4814 19.578 78.4814 40.5106C78.4814 61.4432 61.4432 78.4602 40.5106 78.4602Z" fill="white"/>
<path d="M34.2463 40.4684C34.3944 39.8758 34.0135 39.2832 33.4208 39.135C32.5742 38.9234 31.3255 37.082 31.4313 36.1719C31.4948 35.5792 31.0715 35.029 30.4788 34.9443C29.865 34.8808 29.3359 35.3041 29.2513 35.8967C28.9973 37.9074 30.9868 40.8071 32.9129 41.2727C32.9975 41.2939 33.0822 41.2939 33.1669 41.2939C33.6748 41.3151 34.1193 40.9764 34.2463 40.4684Z" fill="white"/>
<path d="M51.4323 53.8236C51.2207 53.8236 51.009 53.8447 50.7974 53.8659L47.8554 46.6062C49.2946 45.7807 50.6069 44.7013 51.7498 43.4102C54.3955 40.3835 55.9194 36.3621 55.9194 32.3618C55.9194 31.748 55.4326 31.2612 54.8188 31.2612H25.4835C24.8697 31.2612 24.3829 31.748 24.3829 32.3618C24.3829 33.0815 24.4253 33.8011 24.5311 34.5207H19.7901C19.1763 34.5207 18.6895 35.0075 18.6895 35.6213C18.6895 36.2351 19.1763 36.7219 19.7901 36.7219H24.9756C25.6529 39.1771 26.8805 41.5053 28.5525 43.4102C29.6531 44.6589 30.923 45.7172 32.32 46.5215L26.2032 62.1204C25.9915 62.6919 26.2667 63.3268 26.817 63.5385C26.944 63.5808 27.0921 63.6232 27.2191 63.6232C27.6636 63.6232 28.0657 63.348 28.235 62.9247L29.632 59.3901H46.4161C46.7548 61.7818 48.8713 63.6232 51.4111 63.6232C54.1838 63.6232 56.4485 61.4219 56.4485 58.7128C56.4697 56.0248 54.205 53.8236 51.4323 53.8236ZM30.2246 41.9498C28.1504 39.6004 26.8805 36.5526 26.6476 33.4413H53.697C53.443 36.5526 52.1731 39.6004 50.1201 41.9498C49.1888 43.008 47.8554 44.1933 46.0986 45.0611H46.0775C46.014 45.0822 45.9716 45.1034 45.9293 45.1457C44.3631 45.8865 42.4582 46.3945 40.1935 46.3945C37.8653 46.3945 35.9181 45.8654 34.3307 45.0822C34.2672 45.0399 34.2037 45.0188 34.1402 44.9764C32.4046 44.1298 31.1347 42.9869 30.2246 41.9498ZM34.3095 47.4951C36.1297 48.2147 38.0981 48.6169 40.1512 48.6169C42.1619 48.6169 44.0879 48.2571 45.8658 47.5586L48.702 54.6067C47.7284 55.1993 47.0087 56.1306 46.6278 57.1889H30.4997L34.3095 47.4951ZM51.4323 61.422C49.8661 61.422 48.5962 60.2155 48.5962 58.7128C48.5962 57.2312 49.8661 56.0036 51.4323 56.0036C52.9986 56.0036 54.2685 57.21 54.2685 58.7128C54.2685 60.2155 52.9986 61.422 51.4323 61.422Z" fill="white"/>
<path d="M31.3465 27.7271C30.8385 28.0658 30.7115 28.7643 31.0713 29.2511C31.283 29.5685 31.6216 29.7379 31.9814 29.7379C32.1931 29.7379 32.4047 29.6744 32.5952 29.5474C36.1933 27.0922 34.5636 24.4253 33.7805 23.1554C32.9127 21.7585 32.5529 20.9542 34.3308 19.7266C34.8387 19.388 34.9657 18.6895 34.6059 18.2027C34.2673 17.6947 33.5688 17.5678 33.082 17.9276C29.4839 20.3828 31.1136 23.0496 31.8968 24.3195C32.7645 25.7164 33.1243 26.5207 31.3465 27.7271Z" fill="white"/>
<path d="M46.1411 27.7271C45.6332 28.0658 45.5062 28.7643 45.866 29.2511C46.0776 29.5685 46.4163 29.7379 46.7761 29.7379C46.9877 29.7379 47.1994 29.6744 47.3899 29.5474C50.988 27.0922 49.3583 24.4253 48.5751 23.1554C47.7074 21.7585 47.3476 20.9542 49.1254 19.7266C49.6334 19.388 49.7604 18.6895 49.4006 18.2027C49.0619 17.6947 48.3635 17.5678 47.8767 17.9276C44.2786 20.3828 45.9083 23.0496 46.6914 24.3195C47.5592 25.7164 47.919 26.5207 46.1411 27.7271Z" fill="white"/>
<path d="M37.9285 27.7271C37.4205 28.0658 37.2935 28.7642 37.6534 29.251C37.865 29.5685 38.2037 29.7378 38.5635 29.7378C38.7751 29.7378 38.9868 29.6743 39.1773 29.5473C43.7702 26.3937 41.6748 22.9861 40.68 21.3563C39.4313 19.3245 38.881 17.9699 41.5478 16.1285C42.0558 15.7898 42.1828 15.0914 41.8229 14.6046C41.4843 14.0966 40.7858 13.9696 40.299 14.3294C35.7061 17.4831 37.8015 20.8907 38.7963 22.5204C40.0451 24.5311 40.6165 25.9069 37.9285 27.7271Z" fill="white"/>
</g>
<defs>
<clipPath id="clip0_2_4889">
<rect width="81" height="81" fill="white"/>
</clipPath>
</defs>
</svg>
