<svg width="42" height="41" viewBox="0 0 42 41" fill="none" xmlns="http://www.w3.org/2000/svg">
<path d="M21.3213 40.9977C17.2819 40.9977 13.3332 39.7954 9.97445 37.543C6.61576 35.2906 3.99789 32.0891 2.452 28.3434C0.90611 24.5977 0.501628 20.4761 1.28959 16.4996C2.07754 12.5232 4.02259 8.87056 6.87882 6.00363C9.73504 3.13669 13.3742 1.18421 17.336 0.393084C21.2978 -0.398041 25.4043 0.00773473 29.1363 1.55907C32.8684 3.1104 36.0583 5.73764 38.3027 9.10855C40.5471 12.4795 41.7452 16.4426 41.7455 20.497C41.7397 25.9321 39.586 31.1429 35.757 34.9863C31.9281 38.8296 26.7365 40.9915 21.3213 40.9977ZM21.3213 1.55313C17.5881 1.55286 13.9386 2.66371 10.8343 4.74521C7.7301 6.82671 5.31051 9.78539 3.8816 13.2471C2.4527 16.7088 2.07864 20.518 2.80669 24.193C3.53475 27.8681 5.33219 31.2439 7.97181 33.8937C10.6114 36.5434 13.9747 38.348 17.6362 39.0793C21.2976 39.8105 25.0929 39.4356 28.5421 38.002C31.9913 36.5683 34.9395 34.1403 37.0138 31.0249C39.0881 27.9095 40.1954 24.2467 40.1957 20.4997C40.1903 15.477 38.2 10.6616 34.6616 7.10993C31.1232 3.55823 26.3256 1.56031 21.3213 1.55451V1.55313Z" fill="white"/>
<path d="M21.3214 11.6358C24.1983 11.6358 24.5383 11.6468 25.6757 11.6988C26.3588 11.7065 27.0355 11.8321 27.6761 12.0703C28.1416 12.2502 28.5645 12.5261 28.9172 12.8802C29.27 13.2343 29.5449 13.6587 29.7242 14.1259C29.9616 14.7694 30.0872 15.4489 30.0956 16.135C30.1475 17.2752 30.1584 17.6165 30.1584 20.504C30.1584 23.3916 30.1475 23.7342 30.0956 24.8744C30.0873 25.5601 29.9617 26.2392 29.7242 26.8822C29.5451 27.3495 29.2702 27.774 28.9174 28.1281C28.5646 28.4822 28.1417 28.7581 27.6761 28.9379C27.0355 29.176 26.3588 29.3016 25.6757 29.3092C24.5383 29.3613 24.1997 29.3723 21.3214 29.3723C18.443 29.3723 18.1043 29.3613 16.9683 29.3092C16.2848 29.3016 15.6076 29.176 14.9666 28.9379C14.5009 28.7581 14.078 28.4822 13.7252 28.1281C13.3724 27.774 13.0976 27.3495 12.9184 26.8822C12.681 26.2392 12.5559 25.56 12.5484 24.8744C12.4952 23.7342 12.4857 23.393 12.4857 20.504C12.4857 17.6151 12.4965 17.2752 12.5484 16.135C12.556 15.449 12.6812 14.7694 12.9184 14.1259C13.0977 13.6587 13.3726 13.2343 13.7254 12.8802C14.0782 12.5261 14.501 12.2502 14.9666 12.0703C15.6076 11.8321 16.2848 11.7065 16.9683 11.6988C18.1043 11.6468 18.4444 11.6358 21.3214 11.6358ZM21.3214 9.68701C18.3952 9.68701 18.0292 9.69935 16.8795 9.7528C15.9859 9.77057 15.1017 9.94065 14.2648 10.2558C13.549 10.5333 12.8989 10.9581 12.3564 11.5028C11.8139 12.0476 11.3909 12.7002 11.1147 13.4188C10.8006 14.2587 10.6311 15.1462 10.6136 16.0432C10.5603 17.1971 10.5481 17.5658 10.5481 20.5013C10.5481 23.4368 10.5603 23.8069 10.6136 24.9608C10.6311 25.8578 10.8006 26.7453 11.1147 27.5852C11.3909 28.3038 11.8139 28.9564 12.3564 29.5011C12.8989 30.0459 13.549 30.4707 14.2648 30.7482C15.1019 31.0628 15.9859 31.2328 16.8795 31.2512C18.0292 31.3046 18.3952 31.317 21.3214 31.317C24.2475 31.317 24.6148 31.3046 25.7631 31.2512C26.6572 31.233 27.5417 31.0629 28.3792 30.7482C29.0951 30.4705 29.7453 30.0457 30.288 29.501C30.8307 28.9563 31.254 28.3038 31.5307 27.5852C31.8443 26.7451 32.0138 25.8577 32.0318 24.9608C32.085 23.8069 32.096 23.4382 32.096 20.5013C32.096 17.5644 32.085 17.1958 32.0318 16.0432C32.0138 15.1462 31.8443 14.2589 31.5307 13.4188C31.254 12.7002 30.8307 12.0477 30.288 11.503C29.7453 10.9583 29.0951 10.5335 28.3792 10.2558C27.5418 9.9405 26.6572 9.77041 25.7631 9.7528C24.6134 9.69935 24.2475 9.68701 21.3214 9.68701Z" fill="white"/>
<path d="M21.3228 14.9482C20.2285 14.9482 19.1588 15.2739 18.249 15.8841C17.3391 16.4943 16.6299 17.3616 16.2111 18.3763C15.7924 19.391 15.6829 20.5075 15.8964 21.5847C16.1099 22.6619 16.6368 23.6514 17.4106 24.428C18.1843 25.2046 19.1701 25.7335 20.2433 25.9477C21.3166 26.162 22.429 26.052 23.44 25.6317C24.451 25.2114 25.3151 24.4997 25.923 23.5865C26.5309 22.6733 26.8555 21.5996 26.8555 20.5013C26.8555 19.0286 26.2725 17.6161 25.235 16.5747C24.1974 15.5333 22.7901 14.9482 21.3228 14.9482ZM21.3228 24.107C20.6126 24.107 19.9183 23.8957 19.3278 23.4997C18.7373 23.1037 18.277 22.5409 18.0052 21.8823C17.7333 21.2238 17.6621 20.4992 17.8006 19.8001C17.939 19.1009 18.2809 18.4587 18.783 17.9546C19.2851 17.4504 19.9248 17.1071 20.6213 16.9678C21.3178 16.8286 22.0398 16.8998 22.696 17.1724C23.3522 17.445 23.9132 17.9067 24.308 18.4993C24.7027 19.0918 24.9136 19.7885 24.9138 20.5013C24.9138 21.4574 24.5355 22.3743 23.8621 23.0505C23.1887 23.7266 22.2753 24.1066 21.3228 24.107Z" fill="white"/>
<path d="M28.3669 14.7275C28.3669 14.9842 28.291 15.2351 28.1489 15.4486C28.0068 15.662 27.8049 15.8283 27.5686 15.9265C27.3324 16.0248 27.0723 16.0505 26.8215 16.0004C26.5707 15.9503 26.3403 15.8267 26.1595 15.6452C25.9786 15.4637 25.8555 15.2325 25.8056 14.9807C25.7557 14.729 25.7813 14.468 25.8792 14.2309C25.9771 13.9937 26.1428 13.791 26.3554 13.6484C26.568 13.5058 26.818 13.4297 27.0738 13.4297C27.4167 13.4297 27.7456 13.5664 27.9881 13.8098C28.2306 14.0532 28.3669 14.3833 28.3669 14.7275Z" fill="white"/>
</svg>
