<svg width="72" height="73" viewBox="0 0 72 73" fill="none" xmlns="http://www.w3.org/2000/svg">
<path d="M54.6759 65.631C54.5675 65.6981 54.4901 65.8056 54.4608 65.9297C54.4316 66.0538 54.4528 66.1845 54.5199 66.293C54.5634 66.363 54.6234 66.4212 54.6947 66.4624C54.7661 66.5035 54.8465 66.5264 54.9288 66.529C55.0217 66.5298 55.1126 66.5026 55.1898 66.451C55.2971 66.3806 55.3733 66.2717 55.4025 66.1469C55.4317 66.022 55.4117 65.8906 55.3468 65.78C55.3127 65.7259 55.2683 65.6792 55.2161 65.6424C55.1638 65.6056 55.1047 65.5795 55.0424 65.5657C54.98 65.5518 54.9155 65.5505 54.8525 65.5617C54.7896 65.5729 54.7297 65.5965 54.6759 65.631Z" fill="white"/>
<path d="M57.08 63.968C56.9781 64.0461 56.9106 64.1608 56.892 64.2877C56.8733 64.4147 56.9049 64.544 56.98 64.648C57.0265 64.7073 57.086 64.7552 57.1537 64.7883C57.2214 64.8214 57.2956 64.8387 57.371 64.839C57.4789 64.8376 57.5838 64.8026 57.671 64.739H57.662C57.7143 64.7013 57.7586 64.6535 57.7922 64.5984C57.8259 64.5434 57.8482 64.4821 57.8579 64.4184C57.8676 64.3546 57.8644 64.2895 57.8486 64.227C57.8328 64.1644 57.8047 64.1056 57.7659 64.054C57.7271 64.0025 57.6784 63.9592 57.6227 63.9267C57.567 63.8942 57.5054 63.8731 57.4414 63.8647C57.3774 63.8563 57.3123 63.8608 57.2501 63.8778C57.1879 63.8949 57.1297 63.9242 57.079 63.964L57.08 63.968Z" fill="white"/>
<path d="M59.345 62.1028C59.2491 62.189 59.1909 62.3093 59.1828 62.438C59.1748 62.5667 59.2176 62.6933 59.302 62.7908C59.3486 62.8417 59.4051 62.8827 59.468 62.911C59.5309 62.9394 59.5989 62.9546 59.668 62.9558C59.7878 62.9546 59.9028 62.9082 59.99 62.8258C60.0858 62.7404 60.1439 62.6204 60.1513 62.4923C60.1588 62.3641 60.1149 62.2382 60.0295 62.1423C59.9441 62.0464 59.8241 61.9884 59.6959 61.981C59.5677 61.9736 59.4418 62.0174 59.3459 62.1028H59.345Z" fill="white"/>
<path d="M71.348 38.654C71.2831 38.646 71.2173 38.6512 71.1544 38.6694C71.0916 38.6875 71.033 38.7181 70.9823 38.7594C70.9316 38.8008 70.8898 38.8519 70.8594 38.9098C70.8289 38.9677 70.8105 39.0312 70.8053 39.0964C70.8 39.1615 70.808 39.2271 70.8287 39.2892C70.8495 39.3512 70.8825 39.4084 70.9259 39.4573C70.9693 39.5062 71.0222 39.5459 71.0813 39.5738C71.1404 39.6018 71.2046 39.6175 71.27 39.62H71.313C71.4341 39.6197 71.5506 39.5738 71.6395 39.4916C71.7284 39.4094 71.7832 39.2967 71.793 39.176C71.7993 39.1123 71.7927 39.0479 71.7735 38.9868C71.7544 38.9257 71.7231 38.8691 71.6815 38.8204C71.64 38.7716 71.589 38.7318 71.5317 38.7032C71.4744 38.6746 71.4119 38.6579 71.348 38.654Z" fill="white"/>
<path d="M67.271 52.809C67.2153 52.7745 67.1533 52.7516 67.0885 52.7418C67.0238 52.732 66.9577 52.7354 66.8943 52.7519C66.8309 52.7683 66.7715 52.7975 66.7197 52.8376C66.6679 52.8776 66.6249 52.9279 66.593 52.9851C66.5612 53.0423 66.5413 53.1054 66.5345 53.1706C66.5278 53.2357 66.5344 53.3015 66.5538 53.364C66.5733 53.4266 66.6052 53.4845 66.6477 53.5343C66.6902 53.5842 66.7424 53.6249 66.801 53.654C66.8567 53.6885 66.9188 53.7114 66.9835 53.7212C67.0483 53.731 67.1142 53.7276 67.1776 53.7111C67.241 53.6946 67.3004 53.6654 67.3522 53.6253C67.404 53.5853 67.4472 53.5351 67.479 53.4779C67.5108 53.4206 67.5307 53.3575 67.5375 53.2924C67.5442 53.2273 67.5376 53.1614 67.5182 53.0989C67.4987 53.0364 67.4668 52.9784 67.4243 52.9286C67.3818 52.8787 67.3297 52.8381 67.271 52.809Z" fill="white"/>
<path d="M68.561 50.1339C68.4432 50.0819 68.3097 50.0788 68.1897 50.1253C68.0696 50.1718 67.973 50.2641 67.921 50.3819C67.869 50.4996 67.8659 50.6332 67.9124 50.7532C67.9589 50.8732 68.0513 50.9699 68.169 51.0219C68.2292 51.049 68.294 51.0639 68.3599 51.0659C68.4712 51.0653 68.5789 51.0267 68.6652 50.9566C68.7516 50.8865 68.8113 50.789 68.8347 50.6803C68.858 50.5715 68.8435 50.4581 68.7935 50.3587C68.7436 50.2594 68.6612 50.18 68.56 50.1339H68.561Z" fill="white"/>
<path d="M70.4419 44.5158C70.3798 44.4986 70.3147 44.494 70.2508 44.5022C70.1868 44.5105 70.1252 44.5313 70.0694 44.5636C70.0136 44.5959 69.9647 44.639 69.9257 44.6904C69.8867 44.7417 69.8582 44.8003 69.8421 44.8628C69.826 44.9252 69.8224 44.9903 69.8317 45.0541C69.841 45.1179 69.8628 45.1793 69.896 45.2345C69.9292 45.2898 69.9732 45.338 70.0252 45.3761C70.0772 45.4143 70.1362 45.4417 70.1989 45.4568C70.2388 45.4669 70.2798 45.4729 70.321 45.4748C70.4398 45.4753 70.5547 45.4323 70.6441 45.3539C70.7335 45.2755 70.7911 45.1672 70.8061 45.0492C70.8211 44.9313 70.7924 44.812 70.7255 44.7137C70.6586 44.6155 70.5581 44.5451 70.4429 44.5158H70.4419Z" fill="white"/>
<path d="M65.76 55.3609C65.7069 55.323 65.6466 55.2961 65.5829 55.2819C65.5192 55.2677 65.4534 55.2665 65.3892 55.2783C65.325 55.29 65.2638 55.3146 65.2092 55.3505C65.1547 55.3863 65.108 55.4328 65.0718 55.4871C65.0356 55.5414 65.0107 55.6024 64.9985 55.6666C64.9864 55.7307 64.9872 55.7966 65.001 55.8604C65.0148 55.9242 65.0414 55.9846 65.079 56.0379C65.1166 56.0912 65.1645 56.1365 65.22 56.1709C65.2976 56.2216 65.3883 56.2487 65.481 56.2489C65.5617 56.2483 65.6411 56.2281 65.7123 56.1902C65.7835 56.1522 65.8445 56.0976 65.89 56.0309C65.961 55.9247 65.9871 55.7946 65.9628 55.6692C65.9384 55.5437 65.8656 55.4329 65.76 55.3609Z" fill="white"/>
<path d="M69.6239 47.3639C69.5636 47.3429 69.4997 47.334 69.436 47.3377C69.3723 47.3415 69.31 47.3577 69.2525 47.3856C69.1951 47.4135 69.1439 47.4523 69.1015 47.5001C69.0592 47.5478 69.0266 47.6035 69.0058 47.6639C68.9837 47.7241 68.974 47.7882 68.9772 47.8523C68.9803 47.9164 68.9964 47.9793 69.0244 48.037C69.0524 48.0948 69.0918 48.1463 69.1401 48.1886C69.1885 48.2308 69.2449 48.2629 69.3059 48.2829C69.3562 48.2998 69.4088 48.3085 69.4619 48.3089C69.5768 48.3105 69.6885 48.2711 69.7771 48.1979C69.8656 48.1246 69.9253 48.0222 69.9453 47.909C69.9653 47.7958 69.9442 47.6792 69.8861 47.5801C69.8279 47.4809 69.7365 47.4057 69.6279 47.3678L69.6239 47.3639Z" fill="white"/>
<path d="M71.0169 41.5979C70.8923 41.5848 70.7674 41.6199 70.6679 41.696C70.5684 41.7721 70.5018 41.8834 70.4819 42.0071C70.4619 42.1308 70.49 42.2574 70.5605 42.361C70.631 42.4645 70.7385 42.5372 70.8609 42.5639H70.9389C71.0531 42.5645 71.1639 42.5246 71.2515 42.4514C71.3392 42.3782 71.3981 42.2764 71.4179 42.1639C71.4372 42.036 71.4064 41.9056 71.3316 41.8001C71.2568 41.6945 71.144 41.6221 71.0169 41.5979Z" fill="white"/>
<path d="M64.0399 57.783C63.9911 57.7419 63.9346 57.711 63.8736 57.6922C63.8127 57.6734 63.7485 57.6671 63.685 57.6736C63.6216 57.6802 63.5601 57.6994 63.5042 57.7302C63.4484 57.761 63.3993 57.8028 63.36 57.853C63.2818 57.9557 63.2464 58.0847 63.2611 58.2129C63.2758 58.3411 63.3395 58.4587 63.4389 58.541C63.5247 58.6075 63.6305 58.6427 63.739 58.641C63.8112 58.6413 63.8825 58.6249 63.9474 58.5932C64.0122 58.5615 64.0688 58.5152 64.1129 58.458C64.192 58.3585 64.2287 58.2319 64.2151 58.1055C64.2014 57.9792 64.1384 57.8633 64.0399 57.783Z" fill="white"/>
<path d="M61.435 60.0659C61.3913 60.1127 61.3573 60.1676 61.3349 60.2276C61.3126 60.2875 61.3024 60.3514 61.3048 60.4153C61.3072 60.4793 61.3223 60.5421 61.3491 60.6003C61.3759 60.6584 61.4139 60.7105 61.461 60.7539C61.55 60.8391 61.6688 60.8858 61.792 60.8839C61.9258 60.8836 62.0542 60.8304 62.149 60.7359C62.193 60.6892 62.2272 60.6344 62.2497 60.5744C62.2722 60.5144 62.2826 60.4505 62.2801 60.3865C62.2777 60.3224 62.2625 60.2595 62.2356 60.2014C62.2086 60.1433 62.1704 60.0911 62.123 60.0479C62.0774 60.0026 62.023 59.967 61.9632 59.9433C61.9035 59.9195 61.8394 59.9081 61.7751 59.9098C61.7108 59.9115 61.6476 59.9262 61.5891 59.953C61.5306 59.9799 61.4783 60.0182 61.435 60.0659Z" fill="white"/>
<path d="M39.023 1.47485H39.0659C39.1883 1.46924 39.3036 1.41595 39.3872 1.32639C39.4708 1.23682 39.5161 1.1181 39.5133 0.995605C39.5105 0.873113 39.4598 0.756568 39.3722 0.670929C39.2846 0.58529 39.167 0.537354 39.0444 0.537354C38.9219 0.537354 38.8042 0.58529 38.7166 0.670929C38.6289 0.756568 38.5784 0.873113 38.5756 0.995605C38.5728 1.1181 38.6179 1.23682 38.7015 1.32639C38.7851 1.41595 38.9006 1.46924 39.023 1.47485Z" fill="white"/>
<path d="M12.2368 10.683C12.3594 10.6814 12.4773 10.6348 12.5678 10.552C12.6587 10.4632 12.7113 10.3426 12.7144 10.2156C12.7176 10.0887 12.671 9.96554 12.5847 9.87242C12.4983 9.77931 12.3791 9.72362 12.2523 9.71718C12.1254 9.71074 12.0011 9.75408 11.9058 9.83797C11.8342 9.90467 11.7843 9.99135 11.7626 10.0867C11.7409 10.1821 11.7484 10.2819 11.7841 10.373C11.8198 10.4641 11.882 10.5423 11.9627 10.5976C12.0434 10.6529 12.1389 10.6826 12.2368 10.683Z" fill="white"/>
<path d="M24.676 3.26094C24.7294 3.26071 24.7824 3.25193 24.833 3.23493C24.8935 3.21426 24.9494 3.1818 24.9973 3.13941C25.0452 3.09703 25.0843 3.04558 25.1122 2.98802C25.1401 2.93046 25.1562 2.86795 25.1598 2.80409C25.1634 2.74022 25.1543 2.67627 25.1331 2.61595C25.0898 2.49483 25.0007 2.39553 24.8849 2.33943C24.7691 2.28333 24.636 2.27491 24.514 2.31596C24.4531 2.33605 24.3968 2.36818 24.3485 2.41044C24.3002 2.4527 24.261 2.5042 24.233 2.56193C24.2051 2.61967 24.1889 2.68246 24.1857 2.74653C24.1824 2.81061 24.192 2.87467 24.214 2.93495C24.2445 3.03251 24.3063 3.11732 24.3898 3.17625C24.4733 3.23518 24.5739 3.26493 24.676 3.26094Z" fill="white"/>
<path d="M33.2209 1.47488H33.2639C33.3945 1.46926 33.5177 1.41271 33.6072 1.31732C33.6966 1.22194 33.7451 1.09532 33.7423 0.9646C33.7395 0.833884 33.6856 0.709463 33.5922 0.618011C33.4987 0.52656 33.3732 0.475342 33.2424 0.475342C33.1117 0.475342 32.9861 0.52656 32.8927 0.618011C32.7993 0.709463 32.7454 0.833884 32.7425 0.9646C32.7397 1.09532 32.7883 1.22194 32.8777 1.31732C32.9671 1.41271 33.0903 1.46926 33.2209 1.47488Z" fill="white"/>
<path d="M30.329 1.83187H30.407C30.4706 1.82135 30.5316 1.79832 30.5862 1.76409C30.6408 1.72986 30.688 1.68512 30.7253 1.63247C30.7625 1.57981 30.7889 1.52028 30.8029 1.45736C30.8169 1.39443 30.8184 1.32936 30.807 1.26589C30.7827 1.14059 30.7113 1.02935 30.6076 0.954975C30.5038 0.880604 30.3755 0.848708 30.2491 0.865864C30.1291 0.886416 30.0211 0.951164 29.9464 1.04735C29.8718 1.14354 29.8359 1.26421 29.8459 1.38555C29.8558 1.50689 29.9108 1.6201 30 1.7029C30.0893 1.7857 30.2063 1.83207 30.328 1.83287L30.329 1.83187Z" fill="white"/>
<path d="M27.4708 2.43391C27.512 2.43212 27.5528 2.42608 27.5928 2.41591C27.7093 2.38288 27.809 2.30674 27.8715 2.20293C27.9339 2.09911 27.9546 1.97541 27.9292 1.85695C27.9038 1.73848 27.8343 1.63411 27.7347 1.56505C27.6352 1.49599 27.5131 1.46741 27.3932 1.48509C27.2733 1.50278 27.1647 1.56539 27.0894 1.66026C27.014 1.75513 26.9775 1.87514 26.9874 1.99589C26.9973 2.11665 27.0528 2.22912 27.1426 2.31047C27.2324 2.39182 27.3497 2.43596 27.4708 2.43391Z" fill="white"/>
<path d="M21.9578 4.32393C22.0267 4.32206 22.0945 4.30715 22.1578 4.27996C22.2753 4.22875 22.3679 4.13315 22.4152 4.01403C22.4626 3.89491 22.4611 3.76189 22.4109 3.64394C22.3589 3.52459 22.2616 3.4308 22.1405 3.38317C22.0193 3.33554 21.8842 3.33796 21.7649 3.38994C21.6455 3.44193 21.5516 3.53918 21.504 3.66033C21.4564 3.78148 21.4588 3.91659 21.5108 4.03594C21.5507 4.12113 21.6138 4.19334 21.6928 4.24428C21.7719 4.29523 21.8638 4.32284 21.9578 4.32393Z" fill="white"/>
<path d="M14.466 8.80102C14.5745 8.80318 14.6804 8.76785 14.7659 8.70102C14.8177 8.66214 14.8613 8.61331 14.8941 8.5574C14.9268 8.50149 14.9479 8.43962 14.9564 8.37539C14.9649 8.31117 14.9605 8.24591 14.9435 8.18341C14.9265 8.12091 14.8971 8.06244 14.8572 8.01141C14.8173 7.96039 14.7676 7.91784 14.7111 7.88626C14.6545 7.85468 14.5922 7.83469 14.5278 7.82748C14.4635 7.82028 14.3983 7.826 14.3362 7.8443C14.2741 7.86259 14.2161 7.89308 14.1659 7.93402C14.0879 7.99783 14.0315 8.0841 14.0042 8.18112C13.9769 8.27814 13.9801 8.38123 14.0134 8.47635C14.0468 8.57147 14.1085 8.65402 14.1903 8.71283C14.2722 8.77163 14.3702 8.80381 14.471 8.80502L14.466 8.80102Z" fill="white"/>
<path d="M1.24177 30.822C1.26712 30.8291 1.29346 30.8322 1.31977 30.831C1.4489 30.8357 1.57489 30.7902 1.67121 30.704C1.76754 30.6179 1.82674 30.4979 1.8365 30.3691C1.84625 30.2402 1.80572 30.1126 1.72346 30.0129C1.6412 29.9133 1.52357 29.8494 1.39521 29.8346C1.26686 29.8198 1.13777 29.8552 1.03498 29.9335C0.932192 30.0118 0.863663 30.1268 0.843821 30.2545C0.823979 30.3822 0.854353 30.5126 0.928538 30.6184C1.00272 30.7242 1.11497 30.7971 1.24177 30.822Z" fill="white"/>
<path d="M1.79975 27.957C1.83568 27.971 1.87433 27.9768 1.91279 27.974C2.02158 27.9734 2.12713 27.9373 2.21357 27.8713C2.30002 27.8052 2.36264 27.7128 2.3918 27.608C2.40915 27.545 2.41371 27.4792 2.40522 27.4145C2.39674 27.3497 2.37534 27.2874 2.34236 27.231C2.30937 27.1747 2.2655 27.1255 2.21321 27.0864C2.16091 27.0473 2.1013 27.019 2.03791 27.0034C1.97453 26.9877 1.90856 26.9848 1.84407 26.995C1.77957 27.0052 1.71777 27.0282 1.6623 27.0626C1.60684 27.0971 1.5589 27.1423 1.52119 27.1956C1.48348 27.2489 1.45685 27.3092 1.44282 27.373C1.41354 27.4977 1.43459 27.629 1.50142 27.7383C1.56824 27.8476 1.67539 27.9262 1.79975 27.957Z" fill="white"/>
<path d="M19.344 5.60479C19.4239 5.6062 19.5026 5.58505 19.571 5.54378C19.6835 5.48311 19.7676 5.38057 19.805 5.25835C19.8425 5.13613 19.8302 5.00407 19.771 4.8908C19.7098 4.77636 19.6058 4.69088 19.4817 4.65319C19.3575 4.61549 19.2234 4.62864 19.109 4.68978C18.9945 4.75091 18.9091 4.855 18.8714 4.97914C18.8337 5.10329 18.8469 5.23735 18.9081 5.35179C18.9508 5.42966 19.014 5.49434 19.0908 5.53893C19.1676 5.58351 19.2552 5.60629 19.344 5.60479Z" fill="white"/>
<path d="M16.8349 7.10299C16.9304 7.10258 17.0238 7.07556 17.1048 7.02499H17.0959C17.1497 6.99012 17.196 6.945 17.2324 6.8922C17.2687 6.83941 17.2943 6.77999 17.3077 6.71731C17.3211 6.65463 17.3219 6.58993 17.3103 6.52691C17.2986 6.46388 17.2747 6.40378 17.2398 6.35C17.205 6.29622 17.1599 6.24983 17.1071 6.21349C17.0543 6.17715 16.9949 6.15155 16.9322 6.13818C16.8695 6.1248 16.8048 6.12392 16.7418 6.13555C16.6787 6.14718 16.6187 6.17112 16.5649 6.20599C16.4563 6.27777 16.3808 6.3897 16.3547 6.5172C16.3286 6.64471 16.3542 6.77736 16.4259 6.88598C16.4715 6.95244 16.5325 7.00689 16.6037 7.04467C16.6749 7.08246 16.7543 7.10247 16.8349 7.10299Z" fill="white"/>
<path d="M10.172 12.7469C10.2528 12.7468 10.3322 12.7266 10.4032 12.6881C10.4742 12.6496 10.5346 12.5941 10.5788 12.5265C10.6231 12.4589 10.6497 12.3813 10.6565 12.3008C10.6633 12.2203 10.6499 12.1394 10.6177 12.0654C10.5854 11.9913 10.5351 11.9264 10.4715 11.8766C10.408 11.8268 10.333 11.7936 10.2534 11.7799C10.1738 11.7663 10.092 11.7727 10.0155 11.7985C9.93895 11.8244 9.87 11.8688 9.81493 11.9279C9.72841 12.0232 9.68275 12.1486 9.68761 12.2772C9.69247 12.4059 9.74746 12.5275 9.84093 12.616C9.93145 12.6988 10.0493 12.7454 10.172 12.7469Z" fill="white"/>
<path d="M69.5278 25.1868C69.5812 25.1866 69.6342 25.1778 69.6848 25.1608C69.8016 25.1212 69.8992 25.0391 69.9582 24.9309C70.0173 24.8226 70.0335 24.6961 70.0035 24.5765C69.9735 24.4569 69.8996 24.3529 69.7965 24.2853C69.6934 24.2176 69.5686 24.1913 69.447 24.2114C69.3253 24.2316 69.2157 24.2968 69.1399 24.394C69.0641 24.4913 69.0276 24.6135 69.0378 24.7364C69.048 24.8593 69.1041 24.9738 69.1949 25.0573C69.2857 25.1407 69.4045 25.187 69.5278 25.1868Z" fill="white"/>
<path d="M57.5169 8.6968C57.6053 8.76171 57.7122 8.79675 57.8219 8.79681C57.8963 8.7974 57.9697 8.78041 58.0363 8.74722C58.1028 8.71402 58.1606 8.66559 58.2049 8.60583C58.2834 8.50409 58.3185 8.3753 58.3022 8.2478C58.2858 8.12029 58.2196 8.00448 58.118 7.92581C58.0679 7.88599 58.0104 7.85662 57.9489 7.83941C57.8873 7.8222 57.823 7.81753 57.7596 7.82565C57.6962 7.83376 57.635 7.8545 57.5797 7.88665C57.5245 7.9188 57.4763 7.96169 57.4379 8.01281C57.3979 8.06281 57.3683 8.12024 57.3506 8.18176C57.333 8.24328 57.3276 8.30769 57.335 8.37127C57.3423 8.43485 57.3621 8.49637 57.3933 8.55224C57.4246 8.60811 57.4666 8.65723 57.5169 8.6968Z" fill="white"/>
<path d="M69.885 27.616H69.894C69.9197 27.7195 69.9789 27.8116 70.0625 27.8778C70.1461 27.944 70.2493 27.9807 70.3559 27.982C70.3968 27.9836 70.4378 27.9806 70.478 27.973C70.5719 27.9498 70.6568 27.8992 70.722 27.8277C70.7872 27.7563 70.8296 27.6671 70.8441 27.5714C70.8585 27.4758 70.8443 27.378 70.8032 27.2904C70.7621 27.2029 70.696 27.1295 70.6131 27.0795C70.5303 27.0296 70.4345 27.0053 70.3378 27.0098C70.2412 27.0143 70.1481 27.0474 70.0703 27.1048C69.9924 27.1622 69.9334 27.2414 69.9006 27.3324C69.8678 27.4234 69.8627 27.5221 69.8859 27.616H69.885Z" fill="white"/>
<path d="M70.477 30.4309C70.4937 30.5458 70.5515 30.6507 70.6398 30.7261C70.7281 30.8015 70.8409 30.8423 70.957 30.8408C70.9833 30.8422 71.0097 30.8392 71.035 30.8319C71.0982 30.8224 71.1589 30.8004 71.2134 30.7671C71.268 30.7338 71.3154 30.6898 71.3527 30.6379C71.39 30.586 71.4165 30.5271 71.4306 30.4647C71.4447 30.4023 71.4463 30.3378 71.435 30.2749C71.4132 30.1482 71.3424 30.0353 71.238 29.9605C71.1336 29.8856 71.0039 29.8549 70.877 29.8749C70.8142 29.8849 70.7539 29.9073 70.6998 29.9408C70.6456 29.9742 70.5985 30.018 70.5613 30.0697C70.5242 30.1214 70.4976 30.1798 70.4831 30.2418C70.4686 30.3038 70.4666 30.3681 70.477 30.4309Z" fill="white"/>
<path d="M70.8261 33.2879C70.8377 33.4091 70.8939 33.5217 70.9839 33.6037C71.0739 33.6858 71.1912 33.7315 71.313 33.7319H71.348C71.4437 33.7243 71.535 33.6884 71.6103 33.6289C71.6855 33.5694 71.7414 33.4889 71.7709 33.3976C71.8004 33.3063 71.8022 33.2082 71.776 33.1159C71.7498 33.0236 71.6968 32.9412 71.6237 32.879C71.5506 32.8168 71.4607 32.7777 71.3654 32.7667C71.2701 32.7556 71.1736 32.7731 71.0882 32.8168C71.0028 32.8606 70.9323 32.9287 70.8856 33.0126C70.839 33.0964 70.8183 33.1923 70.8261 33.2879Z" fill="white"/>
<path d="M44.6931 2.416C44.732 2.43056 44.7735 2.4367 44.815 2.434C44.9336 2.43356 45.0481 2.38975 45.1367 2.3108C45.2252 2.23186 45.2818 2.12325 45.2958 2.00544C45.3099 1.88763 45.2803 1.76877 45.2127 1.67125C45.1451 1.57372 45.0442 1.50426 44.929 1.476C44.8042 1.4447 44.6721 1.46427 44.5617 1.53038C44.4513 1.59648 44.3718 1.70372 44.3405 1.8285C44.3092 1.95329 44.3287 2.08539 44.3948 2.19575C44.4609 2.30612 44.5683 2.38571 44.6931 2.417V2.416Z" fill="white"/>
<path d="M41.879 1.832C41.905 1.832 41.931 1.841 41.957 1.841C42.0861 1.84569 42.212 1.80019 42.3083 1.71408C42.4046 1.62797 42.4639 1.5079 42.4737 1.37906C42.4835 1.25022 42.4429 1.12262 42.3607 1.02298C42.2784 0.923344 42.1608 0.859415 42.0324 0.844605C41.9041 0.829795 41.775 0.865259 41.6722 0.943543C41.5694 1.02183 41.5009 1.13685 41.481 1.26453C41.4612 1.3922 41.4916 1.5226 41.5657 1.62839C41.6399 1.73418 41.7522 1.80716 41.879 1.832Z" fill="white"/>
<path d="M47.4449 3.235V3.24299C47.5661 3.28123 47.6974 3.27072 47.8111 3.21373C47.9247 3.15674 48.0118 3.05774 48.0536 2.9377C48.0955 2.81766 48.089 2.68604 48.0354 2.57072C47.9819 2.45541 47.8856 2.36547 47.7669 2.31999C47.7068 2.29885 47.6431 2.28974 47.5795 2.2932C47.5159 2.29665 47.4536 2.3126 47.3962 2.34013C47.2802 2.39574 47.1911 2.49516 47.1484 2.6165C47.1057 2.73784 47.1129 2.87114 47.1685 2.98713C47.2241 3.10313 47.3235 3.1923 47.4449 3.235Z" fill="white"/>
<path d="M52.7069 5.55185C52.7802 5.58837 52.8602 5.60915 52.9419 5.61286C53.0303 5.6124 53.1168 5.58773 53.192 5.54154C53.2673 5.49534 53.3285 5.4294 53.3689 5.35086C53.4003 5.29523 53.4201 5.23377 53.427 5.17026C53.4339 5.10675 53.4278 5.0425 53.4091 4.98142C53.3904 4.92033 53.3594 4.86369 53.3181 4.81494C53.2769 4.7662 53.2261 4.72636 53.169 4.69785H53.178C53.0648 4.63552 52.9313 4.62073 52.8072 4.65674C52.683 4.69275 52.5782 4.77662 52.5159 4.88987C52.4536 5.00311 52.4389 5.13647 52.4749 5.26062C52.5109 5.38477 52.5947 5.48953 52.7079 5.55185H52.7069Z" fill="white"/>
<path d="M55.181 7.025C55.2887 7.09449 55.4192 7.11877 55.5447 7.09256C55.6701 7.06636 55.7801 6.99179 55.8509 6.88501C55.9033 6.80491 55.9308 6.71105 55.9299 6.61533C55.929 6.51961 55.8998 6.42631 55.8458 6.34723C55.7919 6.26815 55.7156 6.20686 55.6268 6.17108C55.538 6.1353 55.4407 6.12663 55.347 6.14621C55.2533 6.16579 55.1675 6.21273 55.1004 6.28107C55.0334 6.34941 54.9881 6.43609 54.9703 6.53015C54.9525 6.62422 54.9631 6.72143 55.0006 6.80951C55.0381 6.89759 55.1009 6.97258 55.181 7.025Z" fill="white"/>
<path d="M50.1287 4.2889C50.1895 4.31294 50.2544 4.32483 50.3198 4.3239C50.4139 4.32558 50.5065 4.29918 50.5855 4.24807C50.6646 4.19695 50.7266 4.12345 50.7638 4.03692C50.8169 3.91914 50.8212 3.78509 50.7756 3.66418C50.73 3.54326 50.6385 3.44534 50.5208 3.3919C50.4015 3.33992 50.2664 3.33749 50.1452 3.38512C50.0241 3.43276 49.9268 3.52655 49.8748 3.6459C49.8229 3.76524 49.8204 3.90036 49.868 4.02151C49.9156 4.14265 50.0094 4.23991 50.1287 4.29189V4.2889Z" fill="white"/>
<path d="M2.90687 24.237C2.84659 24.215 2.78259 24.2054 2.71851 24.2086C2.65444 24.2119 2.59168 24.228 2.53394 24.256C2.47621 24.284 2.42459 24.3233 2.38233 24.3715C2.34007 24.4198 2.30794 24.4761 2.28785 24.537C2.2468 24.6589 2.25531 24.7921 2.31141 24.9078C2.36751 25.0236 2.46678 25.1127 2.5879 25.156C2.63851 25.173 2.69149 25.1818 2.74488 25.182C2.85983 25.1829 2.97134 25.1427 3.05933 25.0688C3.14733 24.9948 3.20607 24.8919 3.22498 24.7785C3.2439 24.6651 3.2217 24.5487 3.16248 24.4502C3.10326 24.3517 3.01086 24.2775 2.90186 24.241L2.90687 24.237Z" fill="white"/>
<path d="M8.58579 14.097C8.48384 14.0205 8.35607 13.987 8.22971 14.0037C8.10336 14.0205 7.98854 14.0861 7.91001 14.1865C7.83148 14.2869 7.79549 14.414 7.80967 14.5407C7.82384 14.6674 7.88703 14.7834 7.98582 14.864C8.07295 14.9277 8.17789 14.9627 8.28586 14.964C8.35935 14.9642 8.43196 14.9479 8.49827 14.9162C8.56457 14.8845 8.62281 14.8383 8.6688 14.7809C8.74532 14.678 8.77946 14.5497 8.76401 14.4224C8.74857 14.2951 8.6847 14.1786 8.58579 14.097Z" fill="white"/>
<path d="M68.275 21.5459C68.1723 21.5898 68.0881 21.6682 68.0369 21.7674C67.9857 21.8667 67.9707 21.9807 67.9943 22.0898C68.018 22.199 68.0789 22.2965 68.1666 22.3657C68.2543 22.4348 68.3632 22.4713 68.4749 22.4689C68.5406 22.4699 68.6058 22.458 68.6669 22.4339C68.7846 22.3804 68.8762 22.2825 68.9218 22.1616C68.9674 22.0407 68.9631 21.9066 68.91 21.7888C68.8848 21.7307 68.8483 21.6781 68.8025 21.6343C68.7568 21.5905 68.7028 21.5562 68.6436 21.5336C68.5844 21.5109 68.5214 21.5004 68.4581 21.5025C68.3947 21.5046 68.3325 21.5193 68.275 21.5459Z" fill="white"/>
<path d="M66.9489 18.9398C66.8929 18.9695 66.8433 19.0102 66.8033 19.0593C66.7632 19.1085 66.7334 19.1652 66.7156 19.226C66.6978 19.2869 66.6924 19.3507 66.6996 19.4137C66.7069 19.4767 66.7267 19.5376 66.7579 19.5928C66.7982 19.6714 66.8593 19.7374 66.9346 19.7836C67.0099 19.8298 67.0965 19.8545 67.1849 19.8548C67.2666 19.851 67.3466 19.8302 67.4199 19.7938C67.5331 19.7315 67.617 19.6267 67.653 19.5026C67.689 19.3784 67.6742 19.2451 67.6119 19.1318C67.581 19.0757 67.5394 19.0263 67.4894 18.9863C67.4395 18.9463 67.3821 18.9165 67.3206 18.8987C67.1965 18.8627 67.0631 18.8775 66.9499 18.9398H66.9489Z" fill="white"/>
<path d="M0.92097 33.7229H0.964916C1.09086 33.7237 1.21216 33.6753 1.30305 33.5881C1.39394 33.5009 1.44731 33.3818 1.45173 33.2559C1.45616 33.13 1.41127 33.0074 1.32673 32.914C1.24219 32.8206 1.12466 32.7639 0.998973 32.7559C0.870959 32.7459 0.74424 32.787 0.646434 32.8702C0.548628 32.9534 0.48771 33.0719 0.477 33.1999C0.470351 33.3272 0.512507 33.4523 0.595042 33.5495C0.677578 33.6468 0.794223 33.7088 0.92097 33.7229Z" fill="white"/>
<path d="M63.691 14.1069C63.5898 14.1857 63.5239 14.3013 63.5076 14.4285C63.4913 14.5557 63.5259 14.6841 63.6039 14.7859C63.6505 14.8455 63.71 14.8937 63.7779 14.9269C63.8458 14.9602 63.9203 14.9776 63.9959 14.9779C64.1044 14.9801 64.2104 14.9448 64.2959 14.8779C64.3966 14.7967 64.4618 14.6797 64.4781 14.5514C64.4943 14.4232 64.4601 14.2936 64.3829 14.1899C64.301 14.0887 64.183 14.0235 64.0537 14.008C63.9245 13.9925 63.7944 14.0279 63.691 14.1069Z" fill="white"/>
<path d="M61.7759 11.901C61.7044 11.9677 61.6544 12.0544 61.6328 12.1498C61.6111 12.2452 61.6186 12.3449 61.6542 12.436C61.6899 12.5271 61.7522 12.6053 61.8329 12.6606C61.9137 12.7159 62.0092 12.7456 62.107 12.746C62.2297 12.7444 62.3474 12.6978 62.4379 12.615C62.5288 12.5263 62.5814 12.4056 62.5845 12.2786C62.5877 12.1517 62.5411 12.0286 62.4548 11.9354C62.3684 11.8423 62.2492 11.7866 62.1224 11.7802C61.9956 11.7737 61.8713 11.8171 61.7759 11.901Z" fill="white"/>
<path d="M5.32885 18.933C5.2156 18.8706 5.08227 18.8558 4.95812 18.8918C4.83398 18.9279 4.72919 19.0117 4.66686 19.1249C4.60454 19.2382 4.58972 19.3716 4.62573 19.4957C4.66173 19.6199 4.74563 19.7246 4.85888 19.787C4.93062 19.8273 5.01158 19.8483 5.09387 19.848C5.1811 19.8475 5.26662 19.8239 5.34167 19.7794C5.41672 19.7349 5.47859 19.6712 5.52087 19.5949C5.55205 19.5389 5.57188 19.4773 5.5791 19.4136C5.58632 19.35 5.58084 19.2855 5.56298 19.2239C5.54513 19.1624 5.51527 19.1049 5.47509 19.055C5.43492 19.0051 5.38516 18.9636 5.32885 18.933Z" fill="white"/>
<path d="M65.4239 16.4489C65.3156 16.5207 65.2401 16.6324 65.2141 16.7597C65.188 16.887 65.2135 17.0194 65.2849 17.1279C65.3279 17.1949 65.3871 17.2499 65.457 17.288C65.5269 17.3261 65.6053 17.346 65.6849 17.3459C65.7808 17.3459 65.8747 17.3188 65.9559 17.2679C66.0097 17.233 66.0561 17.1878 66.0924 17.135C66.1287 17.0821 66.1542 17.0226 66.1676 16.9599C66.1809 16.8972 66.1817 16.8324 66.17 16.7694C66.1583 16.7063 66.1343 16.6462 66.0993 16.5924C66.0644 16.5386 66.0192 16.4923 65.9664 16.456C65.9135 16.4197 65.8541 16.3941 65.7913 16.3808C65.7286 16.3675 65.6638 16.3666 65.6008 16.3783C65.5377 16.39 65.4777 16.414 65.4239 16.4489Z" fill="white"/>
<path d="M6.85179 16.4499C6.7986 16.415 6.7391 16.391 6.67662 16.3791C6.61414 16.3672 6.54992 16.3678 6.48765 16.3808C6.42539 16.3937 6.36627 16.4188 6.3137 16.4546C6.26114 16.4904 6.21625 16.5362 6.18138 16.5894C6.14651 16.6426 6.12244 16.7021 6.11058 16.7646C6.09872 16.8271 6.09921 16.8912 6.11217 16.9535C6.12512 17.0158 6.15022 17.0749 6.18602 17.1274C6.22181 17.18 6.2676 17.225 6.32078 17.2599C6.40179 17.3104 6.4953 17.3375 6.5908 17.3379C6.6704 17.338 6.74881 17.318 6.81871 17.28C6.8886 17.2419 6.94776 17.1868 6.99083 17.1199C7.02607 17.0669 7.05039 17.0074 7.06248 16.9449C7.07457 16.8824 7.07419 16.8182 7.06126 16.7558C7.04833 16.6935 7.02312 16.6344 6.98717 16.5819C6.95122 16.5293 6.9052 16.4845 6.85179 16.4499Z" fill="white"/>
<path d="M4.0049 21.5279C3.88555 21.4759 3.75044 21.4735 3.62929 21.5211C3.50814 21.5687 3.41089 21.6625 3.35891 21.7819C3.30692 21.9012 3.30456 22.0363 3.35219 22.1575C3.39983 22.2786 3.49359 22.3759 3.61293 22.4279C3.67677 22.4522 3.74472 22.464 3.81301 22.4629C3.9069 22.4634 3.9988 22.4365 4.07766 22.3855C4.15651 22.3345 4.21888 22.2617 4.25698 22.1759C4.30725 22.0563 4.309 21.9218 4.26198 21.8009C4.21496 21.68 4.12277 21.5821 4.0049 21.5279Z" fill="white"/>
<path d="M60.3719 9.83785C60.3245 9.79438 60.2689 9.76069 60.2084 9.7387C60.1479 9.7167 60.0836 9.70687 60.0193 9.7097C59.955 9.71254 59.8919 9.72798 59.8336 9.75521C59.7753 9.78243 59.7229 9.82089 59.6794 9.86837C59.636 9.91584 59.6022 9.97142 59.5802 10.0319C59.5582 10.0924 59.5484 10.1566 59.5513 10.2209C59.5541 10.2852 59.5696 10.3483 59.5968 10.4067C59.624 10.465 59.6624 10.5174 59.7098 10.5609C59.8004 10.6437 59.9182 10.6903 60.0409 10.6919C60.1387 10.6915 60.2342 10.6618 60.3149 10.6065C60.3957 10.5512 60.4578 10.473 60.4935 10.3819C60.5292 10.2908 60.5367 10.191 60.515 10.0956C60.4933 10.0002 60.4435 9.91355 60.3719 9.84685V9.83785Z" fill="white"/>
<path d="M2.54077 47.025C2.43177 47.0615 2.33937 47.1357 2.28015 47.2342C2.22094 47.3327 2.19886 47.4491 2.21778 47.5625C2.23669 47.6759 2.29543 47.7788 2.38343 47.8528C2.47142 47.9267 2.58281 47.9669 2.69776 47.966C2.75141 47.97 2.80534 47.961 2.85486 47.94C2.9149 47.9201 2.97027 47.8884 3.01795 47.8468C3.06563 47.8052 3.10465 47.7546 3.13257 47.6978C3.16049 47.641 3.17684 47.5793 3.18067 47.5161C3.18449 47.453 3.17565 47.3897 3.15479 47.33C3.13459 47.2696 3.10273 47.2138 3.06092 47.1657C3.0191 47.1177 2.96818 47.0784 2.91114 47.0501C2.8541 47.0217 2.79206 47.0049 2.72852 47.0006C2.66497 46.9963 2.60111 47.0046 2.54077 47.025Z" fill="white"/>
<path d="M2.35791 44.6038C2.34324 44.542 2.31646 44.4837 2.27917 44.4323C2.24189 44.3808 2.1948 44.3373 2.14062 44.3041C2.08644 44.2709 2.02627 44.2488 1.9635 44.239C1.90073 44.2291 1.83663 44.2318 1.7749 44.2468C1.64908 44.278 1.54082 44.3579 1.47387 44.4689C1.40693 44.5799 1.38673 44.713 1.41784 44.8388C1.44416 44.9435 1.5048 45.0364 1.58996 45.1027C1.67512 45.169 1.78 45.205 1.88794 45.2048C1.92877 45.2064 1.9696 45.2037 2.00989 45.1968C2.07189 45.1811 2.13012 45.1533 2.18127 45.1148C2.23242 45.0764 2.27548 45.0283 2.30786 44.9731C2.34023 44.9179 2.36128 44.8568 2.36987 44.7935C2.37846 44.7301 2.37443 44.6656 2.35791 44.6038Z" fill="white"/>
<path d="M9.61483 59.455C9.54056 59.5205 9.48821 59.6073 9.46493 59.7036C9.44165 59.7999 9.44857 59.901 9.4847 59.9932C9.52084 60.0855 9.58447 60.1644 9.66696 60.2193C9.74944 60.2741 9.84685 60.3023 9.94589 60.2999C10.0646 60.2989 10.1791 60.2557 10.2689 60.1779C10.3164 60.1351 10.3548 60.0833 10.3823 60.0255C10.4097 59.9678 10.4255 59.9051 10.4288 59.8412C10.432 59.7773 10.4227 59.7134 10.4012 59.6532C10.3798 59.5929 10.3467 59.5374 10.3038 59.4899C10.2609 59.4425 10.2091 59.4039 10.1513 59.3765C10.0936 59.349 10.031 59.3332 9.96713 59.33C9.90324 59.3267 9.83928 59.3361 9.77902 59.3576C9.71875 59.379 9.66328 59.4121 9.61581 59.455H9.61483Z" fill="white"/>
<path d="M0.99896 39.525C1.09452 39.5172 1.18555 39.4813 1.26068 39.4217C1.33581 39.3621 1.39168 39.2816 1.42108 39.1904C1.45048 39.0991 1.45219 39.0012 1.42596 38.909C1.39974 38.8168 1.34676 38.7344 1.27374 38.6722C1.20072 38.6101 1.11091 38.571 1.01568 38.5599C0.920455 38.5488 0.824076 38.5661 0.738706 38.6098C0.653336 38.6534 0.582711 38.7214 0.535947 38.8051C0.489183 38.8888 0.4683 38.9845 0.475888 39.08C0.485637 39.2007 0.540298 39.3133 0.628964 39.3956C0.717631 39.478 0.833871 39.5242 0.954892 39.525H0.99896Z" fill="white"/>
<path d="M1.77892 41.8159V41.8239C1.77031 41.76 1.74885 41.6984 1.71593 41.643C1.68301 41.5875 1.63926 41.5392 1.58727 41.5011C1.53528 41.4629 1.4761 41.4356 1.41332 41.4208C1.35054 41.406 1.28548 41.404 1.22191 41.4149C1.10098 41.4341 0.991709 41.4982 0.916007 41.5945C0.840304 41.6907 0.803734 41.812 0.81359 41.934C0.823445 42.0561 0.878943 42.1699 0.969107 42.2527C1.05927 42.3356 1.17747 42.3814 1.29992 42.3809H1.3789C1.50655 42.3584 1.62016 42.2864 1.69506 42.1806C1.76996 42.0748 1.80012 41.9438 1.77892 41.8159Z" fill="white"/>
<path d="M7.80202 57.217C7.70059 57.2958 7.63448 57.4116 7.61818 57.539C7.60188 57.6664 7.63679 57.7951 7.71511 57.897C7.76083 57.9552 7.81892 58.0025 7.88515 58.0355C7.95138 58.0685 8.02404 58.0864 8.09804 58.0879C8.20599 58.0865 8.31086 58.0516 8.39809 57.988C8.45026 57.9495 8.49425 57.901 8.52748 57.8454C8.56071 57.7897 8.58245 57.728 8.59157 57.6639C8.60069 57.5997 8.597 57.5343 8.58058 57.4716C8.56417 57.4089 8.53538 57.3501 8.49599 57.2986C8.4566 57.2472 8.40745 57.204 8.35121 57.1718C8.29498 57.1396 8.2328 57.1189 8.16848 57.1109C8.10415 57.1029 8.03886 57.1078 7.97646 57.1254C7.91406 57.1429 7.85584 57.1726 7.80507 57.2129L7.80202 57.217Z" fill="white"/>
<path d="M3.54302 49.726C3.48361 49.7497 3.42966 49.7853 3.38445 49.8305C3.33923 49.8757 3.30375 49.9297 3.28008 49.9891C3.2564 50.0485 3.24504 50.1121 3.24675 50.1761C3.24847 50.24 3.26326 50.303 3.29009 50.361C3.3261 50.4493 3.38744 50.525 3.46648 50.5784C3.54552 50.6318 3.63867 50.6605 3.73406 50.661C3.8007 50.6635 3.86688 50.6487 3.92607 50.618C4.04318 50.5666 4.13533 50.4712 4.18266 50.3523C4.23 50.2335 4.22866 50.1009 4.179 49.983C4.15478 49.9239 4.11896 49.8701 4.07366 49.825C4.02835 49.7799 3.97448 49.7443 3.91521 49.7204C3.85594 49.6964 3.79248 49.6846 3.72856 49.6856C3.66464 49.6866 3.60154 49.7003 3.54302 49.726Z" fill="white"/>
<path d="M6.18187 54.8398C6.09197 54.8959 6.02281 54.98 5.98497 55.079C5.94713 55.178 5.94263 55.2866 5.97215 55.3884C6.00168 55.4902 6.0636 55.5797 6.14854 55.6431C6.23349 55.7065 6.33685 55.7404 6.44285 55.7398C6.53577 55.741 6.62682 55.7138 6.70384 55.6618C6.75755 55.6275 6.80396 55.5829 6.84044 55.5306C6.87692 55.4783 6.90279 55.4194 6.91649 55.3571C6.93018 55.2949 6.93144 55.2305 6.92027 55.1677C6.9091 55.105 6.88576 55.045 6.85142 54.9913C6.81708 54.9376 6.77248 54.8912 6.7202 54.8547C6.66792 54.8182 6.60888 54.7924 6.54661 54.7787C6.48435 54.765 6.42005 54.7637 6.35728 54.7748C6.29452 54.786 6.2346 54.8095 6.18089 54.8438L6.18187 54.8398Z" fill="white"/>
<path d="M4.75291 52.3388C4.64039 52.3995 4.55633 52.502 4.5189 52.6243C4.48146 52.7465 4.49359 52.8785 4.55283 52.9918C4.59555 53.0703 4.65853 53.1359 4.73521 53.1818C4.81189 53.2277 4.8995 53.2522 4.98887 53.2528C5.06862 53.253 5.14703 53.232 5.21592 53.1918C5.32903 53.1306 5.41314 53.0269 5.44981 52.9036C5.48647 52.7802 5.47262 52.6475 5.41135 52.5343C5.35009 52.4212 5.24645 52.3371 5.12315 52.3004C4.99984 52.2637 4.867 52.2775 4.75388 52.3388H4.75291Z" fill="white"/>
<path d="M71.4559 35.6699C71.3582 35.6699 71.2627 35.6989 71.1815 35.7532C71.1003 35.8075 71.0369 35.8846 70.9995 35.9749C70.9621 36.0652 70.9524 36.1645 70.9714 36.2603C70.9905 36.3561 71.0376 36.4442 71.1067 36.5132C71.1758 36.5823 71.2638 36.6294 71.3596 36.6484C71.4554 36.6675 71.5547 36.6577 71.645 36.6203C71.7353 36.5829 71.8124 36.5196 71.8667 36.4384C71.921 36.3571 71.9499 36.2616 71.9499 36.1639C71.9499 36.0329 71.8979 35.9072 71.8053 35.8146C71.7126 35.722 71.5869 35.6699 71.4559 35.6699Z" fill="white"/>
<path d="M52.3849 68.039C52.6577 68.039 52.8789 67.8179 52.8789 67.545C52.8789 67.2722 52.6577 67.051 52.3849 67.051C52.112 67.051 51.8909 67.2722 51.8909 67.545C51.8909 67.8179 52.112 68.039 52.3849 68.039Z" fill="white"/>
<path d="M0.852905 36.6618C0.950609 36.6618 1.0462 36.6329 1.12744 36.5786C1.20868 36.5243 1.27194 36.4471 1.30933 36.3569C1.34672 36.2666 1.35646 36.1673 1.3374 36.0715C1.31834 35.9756 1.27136 35.8876 1.20227 35.8185C1.13318 35.7494 1.04517 35.7024 0.949341 35.6833C0.853514 35.6643 0.754207 35.674 0.66394 35.7114C0.573674 35.7488 0.49642 35.8121 0.442139 35.8934C0.387857 35.9746 0.358887 36.0701 0.358887 36.1678C0.358887 36.2989 0.411019 36.4245 0.503662 36.5172C0.596305 36.6098 0.721888 36.6618 0.852905 36.6618Z" fill="white"/>
<path d="M36.1459 1.37693C36.2436 1.37693 36.3391 1.34792 36.4203 1.29364C36.5015 1.23936 36.5649 1.16223 36.6023 1.07196C36.6397 0.981696 36.6494 0.882359 36.6304 0.786532C36.6113 0.690705 36.5642 0.60269 36.4951 0.533602C36.426 0.464515 36.338 0.417471 36.2422 0.39841C36.1464 0.379348 36.0471 0.389127 35.9568 0.426516C35.8665 0.463906 35.7894 0.527224 35.7351 0.608462C35.6808 0.6897 35.6519 0.785203 35.6519 0.882907C35.6519 1.01392 35.7039 1.13957 35.7965 1.23221C35.8892 1.32485 36.0149 1.37693 36.1459 1.37693Z" fill="white"/>
<path d="M11.6659 61.538C11.5916 61.6035 11.5392 61.6903 11.516 61.7866C11.4927 61.8829 11.4996 61.9841 11.5357 62.0763C11.5719 62.1686 11.6355 62.2475 11.718 62.3023C11.8005 62.3572 11.8978 62.3854 11.9968 62.383C12.1153 62.3823 12.2296 62.339 12.3188 62.261C12.4147 62.1744 12.4723 62.0532 12.4788 61.9242C12.4854 61.7952 12.4404 61.6689 12.3538 61.573C12.2673 61.4771 12.1461 61.4195 12.0171 61.413C11.888 61.4064 11.7617 61.4514 11.6659 61.538Z" fill="white"/>
<path d="M38.3429 71.0518L38.3 71.0578C38.1793 71.0804 38.0722 71.1493 38.0016 71.2497C37.9311 71.3502 37.9026 71.4743 37.9224 71.5955C37.9422 71.7166 38.0086 71.8253 38.1075 71.8981C38.2063 71.971 38.3296 72.0023 38.4512 71.9853C38.5728 71.9683 38.683 71.9044 38.7581 71.8073C38.8332 71.7102 38.8673 71.5876 38.8532 71.4656C38.839 71.3437 38.7776 71.2321 38.6823 71.1548C38.5869 71.0774 38.4652 71.0405 38.3429 71.0518Z" fill="white"/>
<path d="M44.0799 70.1888L44.0369 70.1958C43.9089 70.2224 43.7964 70.2981 43.7236 70.4066C43.6507 70.5151 43.6232 70.6479 43.647 70.7764C43.6708 70.9049 43.744 71.0191 43.8509 71.0943C43.9578 71.1695 44.0899 71.1998 44.2189 71.1788C44.348 71.1578 44.4637 71.0871 44.5412 70.9819C44.6187 70.8766 44.6519 70.7452 44.6337 70.6158C44.6155 70.4863 44.5474 70.3692 44.4439 70.2894C44.3404 70.2095 44.2097 70.1734 44.0799 70.1888Z" fill="white"/>
<path d="M46.886 69.405L46.809 69.417C46.7476 69.4368 46.6907 69.4686 46.6417 69.5105C46.5927 69.5525 46.5526 69.6037 46.5236 69.6613C46.4945 69.7189 46.4772 69.7816 46.4727 69.846C46.4681 69.9103 46.4764 69.9749 46.497 70.036C46.5396 70.1563 46.6266 70.2557 46.7402 70.3139C46.8538 70.3721 46.9854 70.3847 47.1079 70.349C47.2229 70.3104 47.3193 70.2302 47.3783 70.1242C47.4373 70.0182 47.4545 69.894 47.4268 69.7759C47.399 69.6578 47.3282 69.5543 47.2282 69.4857C47.1281 69.4171 47.0061 69.3884 46.886 69.405Z" fill="white"/>
<path d="M49.6228 68.3859C49.5824 68.3936 49.5428 68.4053 49.5048 68.421C49.3938 68.4702 49.3058 68.5598 49.2585 68.6716C49.2112 68.7835 49.2082 68.9091 49.2502 69.0231C49.2921 69.137 49.3759 69.2307 49.4844 69.2852C49.593 69.3396 49.7182 69.3507 49.8346 69.3162C49.9511 69.2816 50.0499 69.2041 50.1113 69.0992C50.1726 68.9944 50.1917 68.8702 50.1647 68.7518C50.1378 68.6334 50.0668 68.5297 49.9661 68.4617C49.8655 68.3938 49.7427 68.3667 49.6228 68.3859Z" fill="white"/>
<path d="M18.9808 66.6628C18.884 66.6103 18.773 66.59 18.6638 66.6048C18.5902 66.6155 18.5203 66.6433 18.4595 66.686C18.3987 66.7288 18.3487 66.7852 18.3138 66.8508C18.2514 66.963 18.2361 67.0954 18.2711 67.219C18.3062 67.3425 18.3888 67.4471 18.5008 67.5098C18.5562 67.5417 18.6173 67.5621 18.6807 67.5699C18.744 67.5778 18.8083 67.5728 18.8697 67.5554C18.9312 67.538 18.9885 67.5084 19.0383 67.4685C19.0881 67.4285 19.1294 67.379 19.1598 67.3228C19.2232 67.2114 19.24 67.0796 19.2064 66.9559C19.1729 66.8323 19.0918 66.7269 18.9808 66.6628Z" fill="white"/>
<path d="M32.5958 70.965C32.5553 70.9563 32.5133 70.9563 32.4728 70.965C32.3549 70.9825 32.2476 71.0426 32.1711 71.1341C32.0947 71.2255 32.0546 71.3418 32.0583 71.4609C32.062 71.58 32.1093 71.6936 32.1913 71.78C32.2732 71.8665 32.3841 71.9199 32.5028 71.93C32.6284 71.9379 32.7522 71.8968 32.848 71.8151C32.9438 71.7335 33.004 71.6178 33.0161 71.4925C33.0282 71.3672 32.9911 71.2422 32.9127 71.1438C32.8343 71.0453 32.7206 70.9812 32.5958 70.965Z" fill="white"/>
<path d="M35.4641 71.1238C35.4391 71.1238 35.411 71.1238 35.385 71.1238C35.2563 71.134 35.1365 71.1937 35.0507 71.2903C34.9649 71.3869 34.9198 71.5129 34.925 71.642C34.9301 71.7711 34.9849 71.8932 35.078 71.9827C35.1712 72.0723 35.2954 72.1223 35.4246 72.1223C35.5538 72.1223 35.6779 72.0723 35.771 71.9827C35.8642 71.8932 35.9191 71.7711 35.9242 71.642C35.9293 71.5129 35.8843 71.3869 35.7985 71.2903C35.7127 71.1937 35.5929 71.134 35.4641 71.1238Z" fill="white"/>
<path d="M29.752 70.5649V70.5569C29.6993 70.5484 29.6456 70.5484 29.5929 70.5569C29.5041 70.5691 29.4205 70.6055 29.3511 70.6621C29.2816 70.7187 29.2291 70.7933 29.1992 70.8778C29.1694 70.9623 29.1634 71.0534 29.1819 71.1411C29.2004 71.2287 29.2427 71.3096 29.3041 71.3748C29.3655 71.4401 29.4437 71.4872 29.53 71.5109C29.6164 71.5347 29.7077 71.5342 29.7938 71.5095C29.88 71.4848 29.9576 71.4369 30.0183 71.371C30.079 71.3051 30.1204 71.2238 30.1379 71.1359C30.1508 71.073 30.1511 71.0082 30.1386 70.9452C30.126 70.8822 30.101 70.8224 30.0651 70.7692C30.0291 70.716 29.9829 70.6705 29.9291 70.6355C29.8753 70.6004 29.8151 70.5764 29.752 70.5649Z" fill="white"/>
<path d="M24.204 69.0568C24.1264 69.0314 24.0443 69.0226 23.963 69.0308C23.8758 69.0443 23.794 69.0815 23.7265 69.1382C23.6589 69.195 23.6082 69.2692 23.58 69.3528C23.5572 69.4125 23.5468 69.4762 23.5495 69.54C23.5521 69.6039 23.5677 69.6665 23.5952 69.7242C23.6228 69.7818 23.6619 69.8332 23.71 69.8752C23.7581 69.9173 23.8142 69.9491 23.875 69.9688H23.867C23.9882 70.0136 24.1223 70.0085 24.2397 69.9545C24.3571 69.9004 24.4481 69.802 24.493 69.6808C24.5378 69.5596 24.5327 69.4256 24.4787 69.3082C24.4247 69.1908 24.3262 69.0996 24.205 69.0548L24.204 69.0568Z" fill="white"/>
<path d="M21.5388 67.969C21.422 67.9162 21.2891 67.9116 21.1689 67.9561C21.0488 68.0007 20.951 68.0909 20.8968 68.2071C20.8569 68.2941 20.8437 68.3909 20.8589 68.4854C20.874 68.5799 20.9168 68.6678 20.9819 68.738C21.047 68.8082 21.1315 68.8575 21.2246 68.8797C21.3177 68.9019 21.4153 68.8959 21.505 68.8626C21.5947 68.8294 21.6726 68.7702 21.7288 68.6927C21.7849 68.6152 21.8168 68.5228 21.8204 68.4272C21.8241 68.3315 21.7993 68.2369 21.7491 68.1554C21.699 68.0738 21.6258 68.009 21.5388 67.969Z" fill="white"/>
<path d="M26.9419 69.922C26.8779 69.9072 26.8116 69.9052 26.7468 69.916C26.6528 69.9277 26.5644 69.9673 26.4931 70.0297C26.4218 70.0921 26.371 70.1744 26.3469 70.2661C26.3124 70.3903 26.3284 70.5231 26.3916 70.6356C26.4547 70.748 26.5598 70.8308 26.6838 70.866C26.7467 70.8851 26.8127 70.8913 26.878 70.8843C26.9433 70.8773 27.0066 70.8573 27.0639 70.8254C27.1213 70.7935 27.1717 70.7504 27.2121 70.6986C27.2525 70.6469 27.282 70.5875 27.299 70.5241C27.3161 70.4607 27.3202 70.3945 27.3111 70.3295C27.3021 70.2644 27.2801 70.2019 27.2464 70.1456C27.2127 70.0892 27.168 70.0402 27.115 70.0015C27.062 69.9627 27.0018 69.9351 26.9378 69.9201L26.9419 69.922Z" fill="white"/>
<path d="M14.296 64.127C14.3571 64.0504 14.3937 63.9571 14.4011 63.8595C14.4085 63.7618 14.3862 63.6641 14.3374 63.5792C14.2885 63.4943 14.2152 63.4261 14.127 63.3834C14.0389 63.3408 13.9399 63.3256 13.843 63.34C13.722 63.3596 13.6124 63.4229 13.535 63.518C13.4951 63.5679 13.4654 63.6253 13.4476 63.6867C13.4298 63.7482 13.4244 63.8125 13.4315 63.8761C13.4386 63.9396 13.4581 64.0011 13.489 64.0571C13.5199 64.1132 13.5614 64.1625 13.6114 64.2025C13.6614 64.2424 13.7188 64.2721 13.7802 64.2898C13.8417 64.3076 13.906 64.3131 13.9696 64.306C14.0331 64.2989 14.0947 64.2793 14.1507 64.2484C14.2067 64.2175 14.2561 64.1759 14.296 64.1259V64.127Z" fill="white"/>
<path d="M15.987 65.959C16.0532 66.0029 16.1291 66.0302 16.2082 66.0383C16.2873 66.0464 16.367 66.0351 16.4407 66.0054C16.5145 65.9758 16.5799 65.9287 16.6314 65.8682C16.6829 65.8076 16.7189 65.7354 16.7363 65.6579C16.7536 65.5803 16.7519 65.4997 16.7311 65.423C16.7104 65.3463 16.6713 65.2758 16.6173 65.2175C16.5632 65.1593 16.4958 65.115 16.4208 65.0886C16.3459 65.0622 16.2656 65.0544 16.187 65.066C16.0903 65.0811 16.0006 65.1249 15.9291 65.1916C15.8577 65.2584 15.808 65.3452 15.7864 65.4405C15.7649 65.5359 15.7724 65.6356 15.8082 65.7266C15.8439 65.8176 15.9063 65.8958 15.987 65.951V65.959Z" fill="white"/>
<path d="M41.198 70.7218C41.1014 70.7363 41.0113 70.7792 40.939 70.845C40.8667 70.9107 40.8157 70.9964 40.7922 71.0913C40.7686 71.1861 40.7737 71.2858 40.8068 71.3777C40.8399 71.4696 40.8995 71.5496 40.9781 71.6077C41.0567 71.6657 41.1507 71.6991 41.2483 71.7037C41.3459 71.7083 41.4427 71.6839 41.5264 71.6335C41.6101 71.5831 41.677 71.509 41.7185 71.4206C41.7601 71.3322 41.7746 71.2334 41.76 71.1368C41.7406 71.0072 41.6704 70.8908 41.565 70.8129C41.4596 70.7351 41.3276 70.7023 41.198 70.7218Z" fill="white"/>
<path d="M56.3188 50.9999C55.6668 50.9332 55.0148 50.8819 54.3628 50.8459C54.1569 50.8372 53.9519 50.8769 53.7642 50.9619C53.5764 51.0468 53.4113 51.1746 53.2819 51.3349C52.9635 51.6374 52.7783 52.0539 52.7668 52.4929C52.7828 52.8494 52.8734 53.1986 53.033 53.5178C53.1925 53.837 53.4173 54.1191 53.6929 54.3459C54.2096 54.883 54.9049 55.2124 55.6478 55.2719C55.9813 55.3282 56.3233 55.3089 56.6483 55.2155C56.9734 55.122 57.2732 54.9567 57.5259 54.7319C57.9545 54.3032 58.0145 53.4699 57.7058 52.2319C57.6208 51.9132 57.444 51.6266 57.1974 51.4075C56.9508 51.1885 56.6453 51.0467 56.3188 50.9999Z" fill="white"/>
<path d="M59.545 40.855C59.6896 40.6737 59.7806 40.4556 59.8077 40.2253C59.8347 39.995 59.7966 39.7618 59.6978 39.552C59.599 39.3422 59.4434 39.1643 59.2487 39.0385C59.054 38.9126 58.8278 38.8438 58.596 38.8399C57.901 38.7599 57.539 38.5559 57.564 37.6589C57.5988 36.5643 57.3536 35.4788 56.8517 34.5053C56.3498 33.5319 55.6078 32.7026 54.696 32.096C52.6944 30.7765 50.3679 30.0343 47.972 29.9509C46.1702 29.8052 44.3773 29.5669 42.6 29.2369C43.519 28.7119 44.253 28.32 44.961 27.885C47.2288 26.5657 49.2654 24.8841 50.99 22.907C51.8075 21.889 52.3252 20.6634 52.4853 19.3677C52.6453 18.0719 52.4412 16.7572 51.8959 15.571C50.5959 13.034 48.3269 12.4889 45.8429 12.5559C43.9184 12.605 42.0259 13.0595 40.289 13.8899C36.2305 15.8643 32.4267 18.3239 28.961 21.2149C27.561 22.3639 26.175 23.527 24.7 24.752C24.888 23.765 25.076 22.8969 25.217 22.0199C25.7488 19.4048 25.3658 16.6863 24.132 14.3199C23.8753 13.8088 23.5067 13.362 23.0536 13.0128C22.6006 12.6636 22.0746 12.421 21.5149 12.303C21.3028 12.2433 21.0763 12.26 20.8753 12.3503C20.6742 12.4406 20.5113 12.5987 20.415 12.7969C20.271 12.9902 20.1885 13.2224 20.1784 13.4632C20.1682 13.704 20.2308 13.9422 20.3579 14.1469C20.5704 14.4921 20.8345 14.8027 21.141 15.0679C21.647 15.5016 22.0515 16.0411 22.3261 16.6483C22.6007 17.2555 22.7386 17.9156 22.73 18.5819C22.956 22.1759 21.5379 25.3019 20.2189 28.4589C20.1189 28.6929 19.866 28.8589 19.675 29.0479C18.452 30.2569 17.15 31.391 16.019 32.687C13.955 35.051 11.862 37.41 10.69 40.458C10.1769 41.916 10.1015 43.4924 10.4732 44.9928C10.8449 46.4932 11.6475 47.852 12.782 48.902C13.1748 49.24 13.6817 49.4155 14.1994 49.3927C14.7171 49.3698 15.2065 49.1503 15.5679 48.7789C16.2471 48.0598 16.7894 47.2227 17.168 46.3089C21.8536 36.5555 28.1983 27.6903 35.919 20.109C38.1518 17.8379 41.0249 16.3027 44.154 15.7089C45.96 15.3919 48.035 17.4089 48.123 19.0249C48.248 21.3249 47.023 22.7799 45.544 24.0999C43.2991 26.0019 40.7757 27.5482 38.0619 28.6849C36.6752 29.2613 35.3775 30.032 34.2079 30.9739C33.5966 31.4521 33.1405 32.1004 32.8969 32.8373C32.6533 33.5742 32.6332 34.3666 32.839 35.1149C32.9927 35.7604 33.3696 36.3308 33.9032 36.7252C34.4369 37.1196 35.0927 37.3125 35.7549 37.2699C39.2779 37.4829 42.8059 37.6179 46.3279 37.8449C47.7909 37.9389 49.3089 37.9819 50.4469 39.1989C50.4043 39.2768 50.3418 39.3419 50.2657 39.3876C50.1896 39.4333 50.1027 39.4579 50.014 39.4589C42.6567 40.8082 35.4793 43.0007 28.6239 45.993C27.2424 46.5979 25.992 47.4664 24.9429 48.5499C23.1629 50.4149 23.0189 53.3119 25.6969 54.8389C28.6879 56.5389 31.8509 56.2179 34.9679 55.7179C40.6369 54.8079 45.6679 52.2059 50.436 48.9519C52.9331 47.2583 54.9901 44.9933 56.436 42.3449C56.836 41.6109 57.225 41.1979 58.105 41.3229C58.3644 41.3955 58.6395 41.3898 58.8957 41.3065C59.1519 41.2233 59.3778 41.0662 59.545 40.855ZM51.053 42.6459C50.6802 43.9654 49.8689 45.1184 48.753 45.915C44.42 49.389 39.709 52.069 34.242 53.027C33.595 53.1409 32.9319 53.1579 32.2759 53.2199C31.5497 53.2588 30.8224 53.1663 30.1289 52.9469C29.8542 52.8579 29.6027 52.7091 29.3925 52.5111C29.1823 52.313 29.0186 52.0708 28.9134 51.8019C28.8081 51.533 28.764 51.244 28.784 50.9559C28.804 50.6678 28.8876 50.3878 29.029 50.1359C29.3497 49.4243 29.8786 48.8267 30.5459 48.4219C33.6059 46.4339 37.063 45.5049 40.446 44.3819C43.6892 43.3657 46.9826 42.5169 50.313 41.8389C51.105 41.6619 51.219 41.9499 51.053 42.6429V42.6459Z" fill="white"/>
</svg>
