<svg width="45" height="37" viewBox="0 0 45 37" fill="none" xmlns="http://www.w3.org/2000/svg">
<path d="M13.582 6.86785e-06C12.5403 -0.00137902 11.509 0.206995 10.5495 0.612708C9.59002 1.01842 8.72203 1.61316 7.99731 2.36149C7.2726 3.10981 6.70599 3.9964 6.33124 4.96838C5.95648 5.94037 5.78127 6.97786 5.81604 8.01901C5.81604 12.104 8.84205 14.355 12.8521 14.355C13.0722 14.3526 13.2919 14.3362 13.51 14.306C13.379 19.779 8.652 26.858 0 31.071L2.32605 36.406C12.911 31.906 21.079 22.614 21.079 9.57001C21.079 3.51801 17.979 6.86785e-06 13.582 6.86785e-06Z" fill="#B50014"/>
<path d="M37.0161 5.60182e-06C35.9745 -0.00124593 34.9432 0.207224 33.9838 0.612997C33.0245 1.01877 32.1566 1.61354 31.432 2.36185C30.7074 3.11016 30.1409 3.9967 29.7662 4.96862C29.3915 5.94054 29.2163 6.97795 29.2511 8.01901C29.2511 12.104 32.2761 14.355 36.2861 14.355C36.5066 14.3526 36.7267 14.3362 36.9451 14.306C36.8141 19.779 32.0871 26.858 23.4351 31.071L25.7601 36.406C36.3451 31.906 44.5141 22.614 44.5141 9.57001C44.5141 3.51801 41.4131 5.60182e-06 37.0161 5.60182e-06Z" fill="#B50014"/>
</svg>
