<svg width="41" height="41" viewBox="0 0 41 41" fill="none" xmlns="http://www.w3.org/2000/svg">
<path d="M20.4247 40.9967C16.3853 40.9964 12.4367 39.7939 9.07818 37.5413C5.71966 35.2887 3.10207 32.0872 1.55639 28.3415C0.0107067 24.5958 -0.393639 20.4742 0.394474 16.4978C1.18259 12.5215 3.12776 8.86896 5.98404 6.00216C8.84032 3.13536 12.4794 1.18303 16.4412 0.392013C20.403 -0.399001 24.5094 0.00683266 28.2414 1.55821C31.9733 3.10958 35.1632 5.7368 37.4075 9.10769C39.6519 12.4786 40.8499 16.4417 40.8502 20.496C40.8444 25.9313 38.6905 31.1424 34.8613 34.9857C31.032 38.8291 25.8401 40.9909 20.4247 40.9967ZM20.4247 1.55214C16.6915 1.55214 13.042 2.66327 9.9379 4.745C6.83381 6.82673 4.41448 9.78555 2.98583 13.2473C1.55717 16.7091 1.18334 20.5184 1.91167 24.1934C2.63999 27.8684 4.43772 31.2441 7.07753 33.8936C9.71735 36.5432 13.0807 38.3475 16.7422 39.0786C20.4038 39.8096 24.199 39.4344 27.6481 38.0005C31.0972 36.5665 34.0452 34.1383 36.1193 31.0228C38.1934 27.9072 39.3004 24.2444 39.3004 20.4974C39.2946 15.4747 37.304 10.6594 33.7654 7.10796C30.2267 3.55652 25.429 1.55896 20.4247 1.55352V1.55214Z" fill="white"/>
<path d="M9.95532 27.1023C11.8416 28.3156 14.0239 28.9849 16.2636 29.037C18.5033 29.0892 20.7143 28.5222 22.6546 27.398C24.5948 26.2738 26.1897 24.6358 27.2648 22.6631C28.3399 20.6903 28.8539 18.4588 28.7505 16.2126C29.5918 15.6031 30.3177 14.8475 30.8941 13.9815C30.11 14.3298 29.2784 14.5585 28.4269 14.6599C29.324 14.1215 29.9952 13.2739 30.3153 12.2753C29.4711 12.7779 28.5475 13.132 27.5844 13.3223C26.9372 12.6293 26.0802 12.1701 25.1464 12.0158C24.2126 11.8615 23.2542 12.0209 22.4199 12.4691C21.5855 12.9173 20.9219 13.6294 20.5319 14.4948C20.1419 15.3602 20.0474 16.3307 20.263 17.2555C18.5547 17.1697 16.8835 16.7242 15.358 15.9479C13.8324 15.1716 12.4867 14.0818 11.4081 12.7495C10.8592 13.6988 10.6912 14.8223 10.9382 15.8916C11.1853 16.9608 11.8288 17.8955 12.738 18.5054C12.0555 18.4844 11.3879 18.2997 10.791 17.9668C10.7786 18.9716 11.116 19.9491 11.7449 20.7309C12.3738 21.5128 13.2548 22.0498 14.236 22.2495C13.6038 22.4226 12.9404 22.4479 12.297 22.3235C12.571 23.1805 13.1052 23.93 13.8248 24.467C14.5445 25.0039 15.4135 25.3015 16.31 25.3179C14.5109 26.7341 12.2254 27.3758 9.95532 27.1023Z" fill="white"/>
</svg>
