<svg width="42" height="41" viewBox="0 0 42 41" fill="none" xmlns="http://www.w3.org/2000/svg">
<path d="M21.2678 40.9976C17.2283 40.9974 13.2797 39.7949 9.92111 37.5422C6.56256 35.2896 3.94497 32.0879 2.39932 28.3421C0.853681 24.5963 0.449352 20.4747 1.23757 16.4983C2.0258 12.5219 3.97114 8.8694 6.82756 6.00265C9.68397 3.13591 13.3232 1.18368 17.2851 0.392821C21.2469 -0.398038 25.3535 0.00799547 29.0854 1.55958C32.8173 3.11117 36.007 5.7386 38.2512 9.10967C40.4954 12.4807 41.6932 16.444 41.6932 20.4983C41.6871 25.9334 39.5331 31.1441 35.7039 34.9872C31.8746 38.8303 26.6829 40.9918 21.2678 40.9976ZM21.2678 1.55312C17.5345 1.55339 13.8853 2.66475 10.7813 4.74664C7.67742 6.82854 5.25829 9.78747 3.82984 13.2493C2.40139 16.7111 2.02779 20.5203 2.75627 24.1952C3.48474 27.8701 5.2826 31.2457 7.92247 33.8951C10.5623 36.5445 13.9257 38.3487 17.5872 39.0796C21.2486 39.8105 25.0438 39.4353 28.4928 38.0013C31.9419 36.5673 34.8898 34.1391 36.9638 31.0236C39.0378 27.9081 40.1448 24.2453 40.1448 20.4983C40.1391 15.4754 38.1483 10.6599 34.6093 7.10846C31.0703 3.55697 26.2722 1.55958 21.2678 1.5545V1.55312Z" fill="white"/>
<path d="M32.0901 15.0067C31.9625 14.5242 31.7109 14.0839 31.3602 13.7298C31.0096 13.3757 30.5725 13.1204 30.0926 12.9894C24.226 12.3538 18.3083 12.3538 12.4417 12.9894C11.9621 13.1207 11.5252 13.3762 11.1749 13.7302C10.8246 14.0842 10.573 14.5244 10.4454 15.0067C9.81607 18.6413 9.81607 22.3576 10.4454 25.9923C10.5728 26.4746 10.8244 26.9148 11.1747 27.2688C11.5251 27.6229 11.962 27.8783 12.4417 28.0096C18.3083 28.6452 24.226 28.6452 30.0926 28.0096C30.5726 27.8787 31.0098 27.6234 31.3604 27.2693C31.711 26.9152 31.9627 26.4748 32.0901 25.9923C32.7192 22.3576 32.7192 18.6413 32.0901 15.0067ZM18.9575 23.8708V17.1295L24.8615 20.5008L18.9575 23.8708Z" fill="white"/>
</svg>
